<svg width="20" height="20" viewBox="0 0 20 20" fill="none" xmlns="http://www.w3.org/2000/svg">
<path d="M4.6875 10C4.6875 9.00913 4.96051 8.08088 5.4348 7.28608V3.91467H2.0634C0.725313 5.65249 0 7.77042 0 10C0 12.2296 0.725313 14.3476 2.0634 16.0854H5.4348V12.714C4.96051 11.9192 4.6875 10.9909 4.6875 10Z" fill="#FBBD00"/>
<path d="M10 15.3126L7.65625 17.6563L10 20.0001C12.2296 20.0001 14.3475 19.2747 16.0854 17.9367V14.5688H12.7175C11.9158 15.0449 10.9836 15.3126 10 15.3126Z" fill="#0F9D58"/>
<path d="M5.43488 12.714L2.06348 16.0854C2.3284 16.4295 2.61688 16.759 2.92902 17.0711C4.81777 18.9598 7.32898 20 10.0001 20V15.3125C8.06164 15.3125 6.3627 14.2688 5.43488 12.714Z" fill="#31AA52"/>
<path d="M20 10C20 9.39164 19.9449 8.78211 19.8363 8.18844L19.7483 7.70801H10V12.3955H14.7442C14.2835 13.312 13.5752 14.0596 12.7175 14.5689L16.0853 17.9367C16.4294 17.6718 16.7589 17.3833 17.0711 17.0711C18.9598 15.1823 20 12.6711 20 10Z" fill="#3C79E6"/>
<path d="M13.7565 6.24348L14.1708 6.65777L17.4854 3.34324L17.0711 2.92895C15.1823 1.0402 12.6711 0 10 0L7.65625 2.34375L10 4.6875C11.419 4.6875 12.7531 5.24008 13.7565 6.24348Z" fill="#CF2D48"/>
<path d="M10.0001 4.6875V0C7.32902 0 4.81781 1.0402 2.92902 2.92891C2.61688 3.24105 2.3284 3.57055 2.06348 3.91465L5.43488 7.28605C6.36273 5.73125 8.06168 4.6875 10.0001 4.6875Z" fill="#EB4132"/>
</svg>
