<svg width="18" height="18" viewBox="0 0 18 18" fill="none" xmlns="http://www.w3.org/2000/svg">
<path d="M4.06833 7.89083C5.38833 10.485 7.515 12.6025 10.1092 13.9317L12.1258 11.915C12.3733 11.6675 12.74 11.585 13.0608 11.695C14.0875 12.0342 15.1967 12.2175 16.3333 12.2175C16.8375 12.2175 17.25 12.63 17.25 13.1342V16.3333C17.25 16.8375 16.8375 17.25 16.3333 17.25C7.72583 17.25 0.75 10.2742 0.75 1.66667C0.75 1.1625 1.1625 0.75 1.66667 0.75H4.875C5.37917 0.75 5.79167 1.1625 5.79167 1.66667C5.79167 2.8125 5.975 3.9125 6.31417 4.93917C6.415 5.26 6.34167 5.6175 6.085 5.87417L4.06833 7.89083Z" fill="#FF6C00"/>
</svg>
